<?xml version="1.0" standalone="no"?>
<!DOCTYPE svg PUBLIC "-//W3C//DTD SVG 20010904//EN"
 "http://www.w3.org/TR/2001/REC-SVG-20010904/DTD/svg10.dtd">
<svg version="1.0" xmlns="http://www.w3.org/2000/svg"
 width="400.000000pt" height="400.000000pt" viewBox="0 0 400.000000 400.000000"
 preserveAspectRatio="xMidYMid meet">
<metadata>
Created by potrace 1.11, written by Peter Selinger 2001-2013
</metadata>
<g transform="translate(0.000000,400.000000) scale(0.100000,-0.100000)"
fill="#000000" stroke="none">
<path d="M918 3991 c-1 -5 -23 -32 -48 -61 -33 -39 -64 -62 -125 -91 -44 -21
-85 -39 -92 -39 -13 0 -38 -39 -30 -46 3 -3 26 -7 53 -10 26 -2 49 -6 51 -8 2
-2 -15 -16 -38 -32 -30 -21 -58 -30 -105 -35 -36 -4 -68 -9 -71 -13 -7 -6 37
-45 52 -46 6 0 23 -10 39 -23 25 -20 27 -26 16 -43 -10 -17 -10 -26 3 -50 15
-29 13 -89 -4 -100 -5 -3 -9 -15 -9 -28 0 -12 -7 -31 -15 -42 -8 -10 -15 -28
-15 -38 0 -11 -4 -33 -9 -50 -12 -40 -27 -95 -46 -176 -13 -59 -13 -72 1 -130
9 -36 20 -69 25 -75 5 -5 9 -19 9 -32 0 -13 4 -31 10 -41 15 -28 60 -188 60
-216 0 -29 -1 -30 -53 -15 -28 7 -47 7 -75 -3 -102 -36 -142 -123 -142 -308 0
-62 5 -130 11 -149 6 -20 15 -52 21 -71 32 -107 108 -230 190 -305 112 -103
164 -129 244 -123 60 5 74 -5 74 -56 0 -14 4 -27 9 -30 5 -3 19 -37 30 -76 24
-79 51 -114 156 -203 39 -33 93 -79 120 -103 28 -24 59 -50 70 -58 19 -13 18
-15 -15 -42 -42 -36 -61 -44 -135 -54 -210 -30 -269 -47 -350 -101 -60 -40
-77 -58 -116 -124 -60 -102 -72 -136 -90 -260 -14 -93 -23 -380 -14 -443 l6
-42 525 0 524 0 -5 37 c-2 21 -11 94 -20 163 -8 69 -20 155 -25 193 -6 37 -10
86 -10 110 0 23 -5 58 -11 77 -9 29 -21 190 -15 190 2 0 23 -19 47 -42 53 -51
96 -73 184 -96 73 -19 242 -35 297 -28 29 4 73 10 98 13 25 2 61 12 80 20 119
53 163 79 205 124 25 27 48 49 50 49 9 0 5 -69 -6 -97 -6 -15 -15 -62 -20
-103 -34 -267 -69 -507 -85 -577 l-7 -33 557 0 556 0 0 246 c0 142 -5 264 -11
288 -22 87 -31 113 -57 165 -45 89 -159 201 -206 201 -9 0 -16 4 -16 9 0 4
-15 11 -32 15 -18 3 -64 13 -103 21 -74 17 -169 32 -246 41 -34 4 -54 14 -75
35 -15 16 -26 30 -23 32 2 2 38 28 79 58 41 30 84 61 95 70 11 9 44 36 74 60
30 24 62 55 73 69 20 27 98 244 98 272 0 21 18 23 55 6 21 -10 36 -8 81 7 30
10 54 22 54 27 0 4 4 8 10 8 22 0 140 109 184 169 44 60 99 166 113 216 29
104 33 129 33 225 0 185 -43 277 -145 309 -30 9 -47 10 -69 2 -22 -9 -27 -9
-23 2 6 17 86 216 98 245 5 12 14 33 20 46 12 25 9 58 -11 136 -7 25 -15 79
-19 120 -13 126 -31 272 -41 331 -6 30 -10 67 -10 82 0 14 -4 29 -10 32 -5 3
-10 17 -10 30 0 13 -4 27 -10 30 -5 3 -10 14 -10 23 0 19 -51 125 -62 130 -5
2 -8 8 -8 13 0 16 -75 98 -130 143 -34 27 -115 66 -139 66 -12 0 -21 5 -21 10
0 13 -2147 14 -2152 1z m875 -477 c63 -20 91 -36 120 -65 21 -22 44 -39 50
-39 7 0 21 16 32 36 11 20 29 40 40 44 11 4 97 8 190 9 130 1 194 -3 275 -18
58 -11 113 -23 123 -26 30 -12 146 15 178 42 28 24 29 24 29 4 0 -11 14 -36
31 -55 l30 -35 -30 -27 c-17 -15 -31 -32 -31 -37 0 -5 13 -21 29 -36 16 -15
34 -45 41 -67 29 -99 50 -192 50 -226 0 -21 7 -56 16 -78 11 -28 13 -45 7 -51
-7 -7 -14 0 -22 21 -6 19 -16 30 -23 27 -7 -2 -12 -8 -12 -13 1 -5 4 -24 7
-41 9 -46 -7 -41 -22 7 -6 21 -16 42 -22 46 -11 6 -118 -10 -179 -27 -30 -9
-167 -61 -235 -90 -51 -21 -165 -48 -215 -50 l-55 -3 0 45 c0 41 -2 44 -24 41
-14 -1 -26 -3 -27 -5 -9 -10 -20 -234 -12 -244 5 -6 24 -14 41 -16 36 -5 -41
0 -147 9 -72 7 -171 -10 -184 -30 -4 -6 -9 54 -12 134 -5 137 -6 145 -25 145
-16 0 -21 -8 -23 -40 -5 -80 -7 -84 -49 -75 -179 39 -270 64 -328 90 -56 25
-138 49 -204 60 -69 11 -76 11 -88 -6 -7 -10 -14 -27 -14 -38 -1 -12 -4 -6 -8
13 -3 19 -11 36 -18 38 -11 4 -15 -8 -40 -102 -7 -27 -8 -24 -11 23 -3 56 -24
69 -30 19 -4 -34 -19 -34 -35 0 -9 20 -9 27 0 30 31 11 63 46 63 71 1 63 53
308 76 358 20 41 106 113 174 145 45 21 218 78 295 97 73 17 142 13 228 -14z
m1633 -275 c5 -45 2 -61 -12 -77 -22 -27 -54 -13 -54 23 0 14 -4 33 -9 43 -5
9 -14 36 -20 60 -13 45 -34 55 -56 25 -11 -14 -17 -15 -38 -6 -32 15 -55 53
-32 53 8 0 15 -4 15 -10 0 -23 37 -7 76 31 39 39 42 40 49 20 11 -36 53 -19
57 24 1 19 11 -57 24 -186z m-366 -369 c4 0 8 -10 8 -22 -1 -13 5 -37 13 -55
12 -29 11 -34 -15 -68 -34 -44 -29 -60 18 -69 20 -4 36 -9 36 -13 0 -3 -11
-18 -25 -35 -14 -16 -25 -36 -25 -44 0 -7 11 -21 25 -30 37 -24 32 -44 -10
-44 -30 0 -35 4 -41 28 -16 73 -59 122 -119 136 -16 4 -112 7 -212 7 -106 0
-183 4 -183 10 0 5 10 9 23 9 13 0 27 4 33 9 29 26 118 41 243 41 72 0 131 4
131 9 0 5 9 11 20 14 13 3 20 14 21 29 l0 23 9 -22 c5 -13 16 -23 24 -23 12 0
14 7 9 33 -3 17 -10 40 -14 49 -14 26 -11 41 7 34 9 -3 19 -6 24 -6z m-70 -32
c0 -25 -3 -29 -10 -18 -13 20 -13 50 0 50 6 0 10 -15 10 -32z m-53 -30 c-3 -7
-5 -2 -5 12 0 14 2 19 5 13 2 -7 2 -19 0 -25z m-1967 -63 c0 -26 14 -33 26
-14 4 8 13 1 23 -17 15 -28 19 -29 89 -30 163 -1 212 -4 212 -14 0 -6 -48 -10
-124 -10 l-125 0 -31 -32 c-16 -18 -39 -55 -49 -83 -17 -46 -21 -50 -52 -50
-33 0 -34 2 -43 48 -10 50 -9 51 30 112 11 17 11 25 -2 50 -14 28 -14 30 8 47
31 24 38 22 38 -7z m280 -194 c0 -6 -5 -13 -11 -17 -7 -4 -7 -10 -1 -16 6 -6
22 -2 43 11 57 35 221 28 322 -14 12 -5 17 -2 17 9 0 9 -6 16 -12 16 -9 0 -8
4 2 10 21 14 104 12 118 -2 8 -8 12 -48 12 -114 0 -78 3 -103 14 -107 16 -6 9
-48 -17 -107 -19 -43 -34 -60 -69 -83 -24 -15 -57 -17 -290 -17 -193 1 -267 4
-279 13 -56 42 -92 156 -54 171 12 4 15 24 15 94 0 57 5 103 15 126 l15 36 80
0 c44 0 80 -4 80 -9z m1165 0 c3 -5 -4 -12 -15 -16 -11 -3 -20 -11 -20 -16 0
-11 43 -12 56 0 18 17 104 31 187 31 69 0 89 -4 110 -20 33 -26 40 -25 33 5
l-6 25 84 0 c55 0 87 -4 93 -12 18 -23 34 -111 32 -170 -2 -42 2 -62 14 -76
22 -24 21 -33 -5 -90 -44 -97 -25 -92 -324 -92 -292 0 -310 3 -352 64 -12 17
-28 54 -37 81 -13 44 -13 51 0 58 12 6 15 29 15 100 0 118 11 137 80 137 27 0
51 -4 55 -9z m-329 -57 c103 -24 104 -24 104 -100 0 -58 3 -67 20 -71 11 -3
23 -17 26 -32 24 -109 77 -176 147 -186 23 -4 139 -8 257 -9 263 -4 250 -3
250 -20 0 -10 -14 -16 -42 -18 -31 -2 -44 -8 -46 -20 -3 -15 4 -18 45 -18 26
0 68 -5 92 -11 24 -5 45 -8 48 -6 9 10 -11 37 -27 37 -28 0 -33 17 -7 24 l22
6 -23 18 c-21 16 -22 20 -10 33 31 31 68 100 68 128 0 18 8 34 21 42 15 10 22
29 27 69 6 46 10 55 27 55 18 0 20 -7 20 -82 0 -45 3 -85 7 -89 5 -4 26 -1 48
6 22 7 42 11 45 9 2 -3 0 -21 -5 -40 -5 -18 -13 -53 -19 -75 -6 -23 -11 -53
-11 -68 0 -14 -4 -45 -10 -68 -5 -24 -15 -70 -21 -103 -7 -33 -25 -112 -41
-175 -17 -63 -33 -128 -37 -145 -5 -16 -20 -64 -35 -105 -16 -41 -30 -85 -33
-98 -6 -24 -83 -95 -173 -158 -30 -21 -57 -41 -60 -45 -7 -9 -258 -181 -305
-209 -31 -20 -64 -27 -170 -37 -156 -15 -445 -17 -529 -3 -34 5 -83 12 -110
15 -39 5 -74 24 -186 99 -161 109 -338 246 -396 308 -22 23 -46 61 -52 83 -6
22 -21 72 -32 110 -12 39 -26 90 -31 115 -6 25 -14 61 -19 80 -5 19 -16 64
-25 99 -8 36 -27 121 -40 190 -14 69 -30 150 -36 179 -7 28 -10 54 -8 56 2 3
26 -1 52 -7 64 -14 70 -7 58 79 -11 71 -5 91 23 81 12 -5 16 -21 16 -62 0 -39
4 -57 14 -61 8 -3 20 -27 26 -54 7 -28 26 -65 46 -88 38 -44 41 -57 19 -66
-23 -8 -18 -26 8 -27 19 -1 17 -3 -10 -15 -42 -18 -46 -50 -5 -39 15 4 54 9
87 11 52 2 60 5 63 23 3 18 -2 21 -37 21 -29 0 -41 4 -41 14 0 20 47 25 270
25 107 0 211 3 231 6 60 10 104 63 141 168 7 22 21 43 30 48 14 8 18 22 18 68
0 69 14 86 87 106 65 18 90 18 169 -1z m-1471 -44 c51 -31 103 -102 116 -156
7 -27 18 -71 25 -99 8 -32 10 -53 4 -59 -7 -7 -10 2 -10 22 0 18 -4 32 -8 32
-4 0 -14 17 -21 38 -17 45 -71 131 -97 153 -31 27 -92 45 -112 33 -23 -14 -62
-92 -62 -124 0 -15 7 -50 16 -79 11 -39 19 -51 32 -49 11 2 16 12 14 28 -13
121 -2 180 33 180 13 0 85 -62 85 -73 0 -4 -9 -7 -19 -7 -29 0 -63 -32 -56
-53 8 -19 30 -23 40 -7 3 6 19 10 35 10 24 0 33 -7 49 -38 l19 -38 -39 -32
c-44 -37 -69 -87 -69 -138 0 -38 -4 -41 -26 -19 -19 19 -33 19 -40 1 -10 -26
99 -166 148 -192 31 -16 104 -19 113 -4 10 16 44 11 53 -7 19 -37 25 -85 11
-94 -22 -14 -68 -10 -104 7 -48 22 -166 139 -206 204 -88 139 -124 326 -91
472 23 101 89 136 167 88z m2929 -5 c24 -26 56 -138 56 -195 0 -49 -30 -193
-52 -250 -40 -102 -112 -199 -202 -270 -68 -54 -110 -71 -149 -57 -25 8 -27
12 -21 46 4 20 11 44 16 54 9 18 43 23 53 7 3 -5 27 -10 53 -10 38 0 55 6 85
31 49 41 131 155 123 174 -7 19 -35 19 -42 0 -11 -27 -24 -16 -24 19 0 51 -16
86 -63 133 l-41 43 17 35 c18 38 49 46 87 23 22 -14 27 -11 32 16 2 13 -7 24
-29 35 -18 9 -33 19 -33 23 0 14 62 68 79 68 12 0 22 -13 31 -39 12 -36 11
-57 -6 -139 -6 -31 -5 -33 16 -30 18 2 26 14 36 53 7 28 13 62 14 76 0 29 -32
100 -54 118 -23 20 -81 5 -121 -30 -31 -28 -108 -163 -130 -229 l-8 -25 -4 26
c-2 14 7 56 21 94 15 37 26 74 26 82 0 22 50 83 94 115 52 37 107 38 140 3z
m-275 -405 c17 0 42 -69 35 -97 -10 -39 -56 -103 -75 -103 -21 0 -31 11 -20
24 5 6 11 31 13 56 3 25 11 81 19 125 13 72 14 76 17 38 2 -24 7 -43 11 -43z
m-2556 54 c3 -3 -5 -24 -19 -45 -17 -27 -24 -54 -25 -91 l-1 -53 -16 48 c-14
44 -14 50 1 83 26 53 45 72 60 58z m2634 -11 c34 -44 45 -86 32 -131 -16 -59
-25 -59 -21 -1 4 46 -14 109 -30 109 -5 0 -8 9 -8 20 0 25 9 25 27 3z m-2554
-70 c9 -64 23 -134 32 -155 6 -14 2 -18 -16 -18 -16 0 -33 13 -51 39 -36 50
-38 114 -5 153 12 15 25 28 28 28 4 0 9 -21 12 -47z m-89 -156 c15 -22 20 -37
13 -37 -23 1 -43 25 -42 52 0 14 1 25 2 24 1 -1 13 -18 27 -39z m2637 -19
c-28 -32 -42 -20 -18 16 17 25 23 29 28 18 3 -9 -1 -24 -10 -34z m-1666 -976
c73 -19 567 -23 625 -5 19 6 63 14 98 17 54 5 62 3 62 -11 0 -25 -98 -115
-155 -142 -102 -48 -141 -55 -305 -54 -218 1 -323 33 -400 121 -52 58 -54 113
-5 97 11 -4 47 -14 80 -23z"/>
<path d="M1318 2494 c-37 -7 -78 -48 -78 -79 0 -27 14 -34 23 -11 9 22 65 48
89 41 14 -5 17 -10 9 -18 -17 -17 -13 -76 8 -106 11 -15 39 -36 62 -46 l41
-19 47 24 c48 26 84 79 77 112 -5 24 9 31 32 17 19 -12 52 -7 52 9 0 14 -57
42 -115 58 -59 15 -202 25 -247 18z m216 -60 c22 -9 20 -31 -4 -39 -26 -8 -40
1 -40 26 0 19 15 24 44 13z"/>
<path d="M2535 2493 c-58 -7 -137 -36 -163 -59 l-27 -24 43 6 42 7 0 -46 c0
-38 5 -49 29 -69 15 -14 43 -30 61 -38 28 -12 36 -11 63 5 72 41 97 87 77 140
-8 20 -6 27 5 31 16 7 48 -11 91 -51 32 -30 39 -31 41 -6 3 32 -57 91 -102
101 -39 9 -101 11 -160 3z m93 -65 c5 -24 -32 -42 -58 -28 -22 12 -26 36 -7
44 24 10 62 1 65 -16z"/>
<path d="M1830 2060 c0 -5 -9 -10 -20 -10 -12 0 -39 -16 -60 -37 -37 -33 -40
-40 -40 -88 0 -57 13 -90 53 -135 18 -20 32 -27 46 -23 26 7 27 34 2 57 -10 9
-26 35 -36 56 -31 68 -6 96 105 120 47 10 72 9 155 -5 94 -16 100 -16 112 1
17 24 -9 54 -48 54 -15 0 -31 5 -34 10 -4 6 -55 10 -121 10 -69 0 -114 -4
-114 -10z"/>
<path d="M1105 1981 c-50 -18 -85 -36 -85 -43 0 -17 24 -18 75 -1 39 13 55 23
55 36 0 18 -12 20 -45 8z"/>
<path d="M2870 1975 c0 -9 8 -18 18 -21 9 -3 26 -10 37 -15 31 -14 67 -15 72
-3 4 12 -84 54 -111 54 -9 0 -16 -7 -16 -15z"/>
<path d="M1085 1913 c-53 -13 -40 -48 13 -37 22 5 32 12 32 25 0 19 -7 21 -45
12z"/>
<path d="M2897 1906 c-7 -18 -3 -21 40 -30 19 -5 34 -3 38 4 10 16 -4 27 -41
34 -23 5 -33 3 -37 -8z"/>
<path d="M1067 1833 c-8 -8 -9 -43 -2 -43 15 0 54 33 49 41 -6 11 -38 12 -47
2z"/>
<path d="M2905 1830 c-3 -5 8 -16 24 -25 33 -17 51 -5 31 20 -14 17 -46 20
-55 5z"/>
<path d="M1642 1474 c5 -42 35 -51 201 -65 127 -11 169 -10 294 4 121 13 150
19 167 36 19 19 19 22 4 37 -15 15 -24 16 -75 6 -127 -25 -313 -23 -546 4 -48
6 -49 6 -45 -22z"/>
<path d="M1836 1286 c-43 -14 -51 -23 -36 -46 7 -12 15 -13 37 -4 37 14 52 8
46 -16 -5 -17 0 -20 35 -20 34 0 39 -3 35 -19 -6 -25 28 -33 63 -15 14 8 40
14 56 14 29 0 29 1 26 48 -2 37 -7 46 -19 44 -9 -1 -22 5 -29 13 -15 19 -155
19 -214 1z"/>
</g>
</svg>
